# xmcd CD database file
#
# Track frame offsets:
#	150
#	12426
#	27184
#	42404
#	61914
#	79362
#	98687
#	112141
#	133467
#	147369
#	166160
#	186485
#
# Disc length: 2709 seconds
#
# Revision: 0
# Processed by: cddbd v1.5.2PL0 Copyright (c) Steve Scherf et al.
# Submitted via: CDex 1.51
#
DISCID=ad0a930c
DTITLE=One Leg Up - Pere Lachaise
DYEAR=2006
DGENRE=Jazz
TTITLE0=Daphne
TTITLE1=Them There Eyes
TTITLE2=Tchavalo Swing
TTITLE3=Anouman
TTITLE4=What is this Thing Called Love?
TTITLE5=Buster Rides Again
TTITLE6=Chez Jacques
TTITLE7=Clouds
TTITLE8=I Can't Give You Anything but Love
TTITLE9=Double Whiskey
TTITLE10=Dinah
TTITLE11=New Minor
EXTD=YEAR: 2006
EXTT0=
EXTT1=
EXTT2=
EXTT3=
EXTT4=
EXTT5=
EXTT6=
EXTT7=
EXTT8=
EXTT9=
EXTT10=
EXTT11=
PLAYORDER=
